Maitree-200.ufo
<glyph name="bar" format="2">
	<advance width="262"/>
	<unicode hex="007C"/>
	<note>
		bar
	</note>
	<outline>
		<contour>
			<point x="114" y="-135" type="line"/>
			<point x="148" y="-135" type="line"/>
			<point x="148" y="720" type="line"/>
			<point x="114" y="720" type="line"/>
		</contour>
	</outline>
</glyph>
<glyph name="softhyphen" format="2">
	<advance width="282"/>
	<unicode hex="00AD"/>
	<note>
		softhyphen
	</note>
	<outline>
		<contour>
			<point x="55" y="253" type="line"/>
			<point x="227" y="253" type="line"/>
			<point x="227" y="281" type="line"/>
			<point x="55" y="281" type="line"/>
		</contour>
	</outline>
</glyph>
<glyph name="macron" format="2">
	<advance width="382"/>
	<unicode hex="00AF"/>
	<note>
		macron
	</note>
	<outline>
		<contour>
			<point x="56" y="557" type="line"/>
			<point x="326" y="557" type="line"/>
			<point x="326" y="585" type="line"/>
			<point x="56" y="585" type="line"/>
		</contour>
	</outline>
</glyph>
<glyph name="saraI-thai" format="2">
	<advance width="0"/>
	<unicode hex="0E34"/>
	<anchor x="-90" y="492" name="top"/>
	<anchor x="-90" y="300" name="_top"/>
	<note>
		saraI-thai
	</note>
	<outline>
		<contour>
			<point x="-474" y="633" type="curve" smooth="yes"/>
			<point x="-82" y="633" type="line" smooth="yes"/>
			<point x="-75" y="633"/>
			<point x="-73" y="635"/>
			<point x="-73" y="643" type="curve" smooth="yes"/>
			<point x="-73" y="654" type="line"/>
			<point x="-93" y="723"/>
			<point x="-164" y="782"/>
			<point x="-278" y="782" type="curve" smooth="yes"/>
			<point x="-392" y="782"/>
			<point x="-463" y="723"/>
			<point x="-483" y="654" type="curve"/>
			<point x="-483" y="643" type="line" smooth="yes"/>
			<point x="-483" y="635"/>
			<point x="-481" y="633"/>
		</contour>
		<contour>
			<point x="-452" y="657" type="line"/>
			<point x="-432" y="720"/>
			<point x="-365" y="758"/>
			<point x="-278" y="758" type="curve" smooth="yes"/>
			<point x="-191" y="758"/>
			<point x="-124" y="720"/>
			<point x="-104" y="657" type="curve"/>
		</contour>
	</outline>
</glyph>
<glyph name="saraIi-thai" format="2">
	<advance width="0"/>
	<unicode hex="0E35"/>
	<anchor x="-90" y="512" name="top"/>
	<anchor x="-90" y="300" name="_top"/>
	<note>
		saraIi-thai
	</note>
	<outline>
		<contour>
			<point x="-474" y="633" type="curve" smooth="yes"/>
			<point x="-82" y="633" type="line" smooth="yes"/>
			<point x="-75" y="633"/>
			<point x="-73" y="635"/>
			<point x="-73" y="643" type="curve" smooth="yes"/>
			<point x="-73" y="654" type="line"/>
			<point x="-77" y="667"/>
			<point x="-83" y="680"/>
			<point x="-90" y="692" type="curve"/>
			<point x="-90" y="796" type="line" smooth="yes"/>
			<point x="-90" y="807"/>
			<point x="-95" y="812"/>
			<point x="-105" y="812" type="curve" smooth="yes"/>
			<point x="-114" y="812"/>
			<point x="-119" y="808"/>
			<point x="-119" y="801" type="curve" smooth="yes"/>
			<point x="-119" y="727" type="line"/>
			<point x="-155" y="760"/>
			<point x="-208" y="782"/>
			<point x="-278" y="782" type="curve" smooth="yes"/>
			<point x="-392" y="782"/>
			<point x="-463" y="723"/>
			<point x="-483" y="654" type="curve"/>
			<point x="-483" y="643" type="line" smooth="yes"/>
			<point x="-483" y="635"/>
			<point x="-481" y="633"/>
		</contour>
		<contour>
			<point x="-452" y="657" type="line"/>
			<point x="-432" y="720"/>
			<point x="-365" y="758"/>
			<point x="-278" y="758" type="curve" smooth="yes"/>
			<point x="-191" y="758"/>
			<point x="-124" y="720"/>
			<point x="-104" y="657" type="curve"/>
		</contour>
	</outline>
</glyph>
<glyph name="saraUee-thai" format="2">
	<advance width="0"/>
	<unicode hex="0E37"/>
	<anchor x="-90" y="512" name="top"/>
	<anchor x="-90" y="300" name="_top"/>
	<note>
		saraUee-thai
	</note>
	<outline>
		<contour>
			<point x="-474" y="633" type="curve" smooth="yes"/>
			<point x="-82" y="633" type="line" smooth="yes"/>
			<point x="-75" y="633"/>
			<point x="-73" y="635"/>
			<point x="-73" y="643" type="curve" smooth="yes"/>
			<point x="-73" y="654" type="line"/>
			<point x="-77" y="667"/>
			<point x="-83" y="680"/>
			<point x="-90" y="692" type="curve"/>
			<point x="-90" y="796" type="line" smooth="yes"/>
			<point x="-90" y="807"/>
			<point x="-95" y="812"/>
			<point x="-105" y="812" type="curve" smooth="yes"/>
			<point x="-114" y="812"/>
			<point x="-119" y="808"/>
			<point x="-119" y="801" type="curve" smooth="yes"/>
			<point x="-119" y="727" type="line"/>
			<point x="-132" y="739"/>
			<point x="-147" y="749"/>
			<point x="-164" y="758" type="curve"/>
			<point x="-164" y="796" type="line" smooth="yes"/>
			<point x="-164" y="807"/>
			<point x="-169" y="812"/>
			<point x="-179" y="812" type="curve" smooth="yes"/>
			<point x="-188" y="812"/>
			<point x="-192" y="808"/>
			<point x="-192" y="801" type="curve" smooth="yes"/>
			<point x="-192" y="769" type="line"/>
			<point x="-217" y="777"/>
			<point x="-246" y="782"/>
			<point x="-278" y="782" type="curve" smooth="yes"/>
			<point x="-392" y="782"/>
			<point x="-463" y="723"/>
			<point x="-483" y="654" type="curve"/>
			<point x="-483" y="643" type="line" smooth="yes"/>
			<point x="-483" y="635"/>
			<point x="-481" y="633"/>
		</contour>
		<contour>
			<point x="-452" y="657" type="line"/>
			<point x="-432" y="720"/>
			<point x="-365" y="758"/>
			<point x="-278" y="758" type="curve" smooth="yes"/>
			<point x="-191" y="758"/>
			<point x="-124" y="720"/>
			<point x="-104" y="657" type="curve"/>
		</contour>
	</outline>
</glyph>
<glyph name="saraU-thai" format="2">
	<advance width="0"/>
	<unicode hex="0E38"/>
	<anchor x="-90" y="0" name="_bottom"/>
	<anchor x="-90" y="-260" name="bottom"/>
	<note>
		saraU-thai
	</note>
	<outline>
		<contour>
			<point x="-102" y="-270" type="curve" smooth="yes"/>
			<point x="-93" y="-270"/>
			<point x="-90" y="-266"/>
			<point x="-90" y="-259" type="curve" smooth="yes"/>
			<point x="-90" y="-132" type="line" smooth="yes"/>
			<point x="-90" y="-96"/>
			<point x="-117" y="-70"/>
			<point x="-155" y="-70" type="curve" smooth="yes"/>
			<point x="-193" y="-70"/>
			<point x="-220" y="-96"/>
			<point x="-220" y="-132" type="curve" smooth="yes"/>
			<point x="-220" y="-168"/>
			<point x="-193" y="-194"/>
			<point x="-155" y="-194" type="curve" smooth="yes"/>
			<point x="-139" y="-194"/>
			<point x="-127" y="-189"/>
			<point x="-117" y="-181" type="curve"/>
			<point x="-116" y="-182" type="line"/>
			<point x="-117" y="-190"/>
			<point x="-117" y="-199"/>
			<point x="-117" y="-207" type="curve" smooth="yes"/>
			<point x="-117" y="-254" type="line" smooth="yes"/>
			<point x="-117" y="-265"/>
			<point x="-112" y="-270"/>
		</contour>
		<contour>
			<point x="-155" y="-172" type="curve" smooth="yes"/>
			<point x="-177" y="-172"/>
			<point x="-195" y="-158"/>
			<point x="-195" y="-132" type="curve" smooth="yes"/>
			<point x="-195" y="-106"/>
			<point x="-177" y="-92"/>
			<point x="-155" y="-92" type="curve" smooth="yes"/>
			<point x="-133" y="-92"/>
			<point x="-115" y="-106"/>
			<point x="-115" y="-132" type="curve" smooth="yes"/>
			<point x="-115" y="-158"/>
			<point x="-133" y="-172"/>
		</contour>
	</outline>
</glyph>
<glyph name="phinthu-thai" format="2">
	<advance width="0"/>
	<unicode hex="0E3A"/>
	<anchor x="-90" y="0" name="_bottom"/>
	<anchor x="-90" y="-260" name="bottom"/>
	<note>
		phinthu-thai
	</note>
	<outline>
		<contour>
			<point x="-106" y="-154" type="curve" smooth="yes"/>
			<point x="-84" y="-154"/>
			<point x="-64" y="-139"/>
			<point x="-64" y="-112" type="curve" smooth="yes"/>
			<point x="-64" y="-85"/>
			<point x="-84" y="-70"/>
			<point x="-106" y="-70" type="curve" smooth="yes"/>
			<point x="-128" y="-70"/>
			<point x="-148" y="-85"/>
			<point x="-148" y="-112" type="curve" smooth="yes"/>
			<point x="-148" y="-139"/>
			<point x="-128" y="-154"/>
		</contour>
	</outline>
</glyph>
<glyph name="maiEk-thai" format="2">
	<advance width="0"/>
	<unicode hex="0E48"/>
	<anchor x="-90" y="522" name="top"/>
	<anchor x="-90" y="300" name="_top"/>
	<note>
		maiEk-thai
	</note>
	<outline>
		<contour>
			<point x="-104" y="635" type="curve" smooth="yes"/>
			<point x="-95" y="635"/>
			<point x="-90" y="640"/>
			<point x="-90" y="647" type="curve" smooth="yes"/>
			<point x="-90" y="787" type="line" smooth="yes"/>
			<point x="-90" y="798"/>
			<point x="-95" y="804"/>
			<point x="-105" y="804" type="curve" smooth="yes"/>
			<point x="-114" y="804"/>
			<point x="-120" y="799"/>
			<point x="-120" y="792" type="curve" smooth="yes"/>
			<point x="-120" y="652" type="line" smooth="yes"/>
			<point x="-120" y="641"/>
			<point x="-114" y="635"/>
		</contour>
	</outline>
</glyph>
<glyph name="nikhahit-thai" format="2">
	<advance width="0"/>
	<unicode hex="0E4D"/>
	<anchor x="-90" y="522" name="top"/>
	<anchor x="-90" y="300" name="_top"/>
	<note>
		nikhahit-thai
	</note>
	<outline>
		<contour>
			<point x="-111" y="623" type="curve" smooth="yes"/>
			<point x="-62" y="623"/>
			<point x="-27" y="655"/>
			<point x="-27" y="704" type="curve" smooth="yes"/>
			<point x="-27" y="754"/>
			<point x="-62" y="786"/>
			<point x="-111" y="786" type="curve" smooth="yes"/>
			<point x="-161" y="786"/>
			<point x="-196" y="754"/>
			<point x="-196" y="704" type="curve" smooth="yes"/>
			<point x="-196" y="655"/>
			<point x="-161" y="623"/>
		</contour>
		<contour>
			<point x="-111" y="645" type="curve" smooth="yes"/>
			<point x="-144" y="645"/>
			<point x="-169" y="666"/>
			<point x="-169" y="704" type="curve" smooth="yes"/>
			<point x="-169" y="743"/>
			<point x="-144" y="764"/>
			<point x="-111" y="764" type="curve" smooth="yes"/>
			<point x="-79" y="764"/>
			<point x="-54" y="743"/>
			<point x="-54" y="704" type="curve" smooth="yes"/>
			<point x="-54" y="667"/>
			<point x="-79" y="645"/>
		</contour>
	</outline>
</glyph>
<glyph name="Ocircumflextilde" format="2">
	<advance width="718"/>
	<unicode hex="1ED6"/>
	<note>
		Ocircumflextilde
	</note>
	<outline>
		<contour>
			<point x="359" y="-10" type="curve" smooth="yes"/>
			<point x="547" y="-10"/>
			<point x="661" y="112"/>
			<point x="661" y="346" type="curve" smooth="yes"/>
			<point x="661" y="580"/>
			<point x="547" y="705"/>
			<point x="359" y="705" type="curve" smooth="yes"/>
			<point x="171" y="705"/>
			<point x="57" y="580"/>
			<point x="57" y="346" type="curve" smooth="yes"/>
			<point x="57" y="112"/>
			<point x="171" y="-10"/>
		</contour>
		<contour>
			<point x="359" y="18" type="curve" smooth="yes"/>
			<point x="188" y="18"/>
			<point x="92" y="140"/>
			<point x="92" y="346" type="curve" smooth="yes"/>
			<point x="92" y="552"/>
			<point x="188" y="677"/>
			<point x="359" y="677" type="curve" smooth="yes"/>
			<point x="530" y="677"/>
			<point x="626" y="552"/>
			<point x="626" y="346" type="curve" smooth="yes"/>
			<point x="626" y="140"/>
			<point x="530" y="18"/>
		</contour>
		<contour>
			<point x="272" y="749" type="line"/>
			<point x="359" y="840" type="line"/>
			<point x="446" y="749" type="line"/>
			<point x="467" y="763" type="line"/>
			<point x="372" y="881" type="line"/>
			<point x="346" y="881" type="line"/>
			<point x="251" y="763" type="line"/>
		</contour>
		<contour>
			<point x="397" y="912" type="curve" smooth="yes"/>
			<point x="418" y="912"/>
			<point x="441" y="926"/>
			<point x="458" y="941" type="curve"/>
			<point x="447" y="964" type="line"/>
			<point x="432" y="952"/>
			<point x="415" y="942"/>
			<point x="396" y="942" type="curve" smooth="yes"/>
			<point x="376" y="942"/>
			<point x="347" y="966"/>
			<point x="323" y="966" type="curve" smooth="yes"/>
			<point x="302" y="966"/>
			<point x="279" y="952"/>
			<point x="262" y="937" type="curve"/>
			<point x="273" y="914" type="line"/>
			<point x="288" y="926"/>
			<point x="304" y="936"/>
			<point x="323" y="936" type="curve" smooth="yes"/>
			<point x="349" y="936"/>
			<point x="369" y="912"/>
		</contour>
	</outline>
</glyph>
<glyph name="ocircumflextilde" format="2">
	<advance width="526"/>
	<unicode hex="1ED7"/>
	<note>
		ocircumflextilde
	</note>
	<outline>
		<contour>
			<point x="263" y="-10" type="curve" smooth="yes"/>
			<point x="409" y="-10"/>
			<point x="479" y="96"/>
			<point x="479" y="244" type="curve" smooth="yes"/>
			<point x="479" y="390"/>
			<point x="409" y="497"/>
			<point x="263" y="497" type="curve" smooth="yes"/>
			<point x="117" y="497"/>
			<point x="47" y="390"/>
			<point x="47" y="244" type="curve" smooth="yes"/>
			<point x="47" y="96"/>
			<point x="117" y="-10"/>
		</contour>
		<contour>
			<point x="263" y="16" type="curve" smooth="yes"/>
			<point x="151" y="16"/>
			<point x="80" y="100"/>
			<point x="80" y="244" type="curve" smooth="yes"/>
			<point x="80" y="387"/>
			<point x="151" y="471"/>
			<point x="263" y="471" type="curve" smooth="yes"/>
			<point x="375" y="471"/>
			<point x="446" y="387"/>
			<point x="446" y="244" type="curve" smooth="yes"/>
			<point x="446" y="100"/>
			<point x="375" y="16"/>
		</contour>
		<contour>
			<point x="176" y="557" type="line"/>
			<point x="263" y="648" type="line"/>
			<point x="350" y="557" type="line"/>
			<point x="371" y="571" type="line"/>
			<point x="276" y="689" type="line"/>
			<point x="250" y="689" type="line"/>
			<point x="155" y="571" type="line"/>
		</contour>
		<contour>
			<point x="301" y="720" type="curve" smooth="yes"/>
			<point x="322" y="720"/>
			<point x="345" y="734"/>
			<point x="362" y="749" type="curve"/>
			<point x="351" y="772" type="line"/>
			<point x="336" y="760"/>
			<point x="319" y="750"/>
			<point x="300" y="750" type="curve" smooth="yes"/>
			<point x="280" y="750"/>
			<point x="251" y="774"/>
			<point x="227" y="774" type="curve" smooth="yes"/>
			<point x="206" y="774"/>
			<point x="183" y="760"/>
			<point x="166" y="745" type="curve"/>
			<point x="177" y="722" type="line"/>
			<point x="192" y="734"/>
			<point x="208" y="744"/>
			<point x="227" y="744" type="curve" smooth="yes"/>
			<point x="253" y="744"/>
			<point x="273" y="720"/>
		</contour>
	</outline>
</glyph>
<glyph name="endash" format="2">
	<advance width="517"/>
	<unicode hex="2013"/>
	<note>
		endash
	</note>
	<outline>
		<contour>
			<point x="20" y="305" type="line"/>
			<point x="497" y="305" type="line"/>
			<point x="497" y="333" type="line"/>
			<point x="20" y="333" type="line"/>
		</contour>
	</outline>
</glyph>
<glyph name="triagup" format="2">
	<advance width="634"/>
	<unicode hex="25B2"/>
	<note>
		triagup
	</note>
	<outline>
		<contour>
			<point x="65" y="0" type="line"/>
			<point x="569" y="0" type="line"/>
			<point x="317" y="500" type="line"/>
		</contour>
	</outline>
</glyph>
<glyph name="triagdn" format="2">
	<advance width="664"/>
	<unicode hex="25BC"/>
	<note>
		triagdn
	</note>
	<outline>
		<contour>
			<point x="332" y="0" type="line"/>
			<point x="584" y="500" type="line"/>
			<point x="80" y="500" type="line"/>
		</contour>
	</outline>
</glyph>
<glyph name="dieresisgrave" format="2">
	<advance width="0"/>
	<note>
		dieresisgrave
	</note>
	<outline>
		<contour>
			<point x="-302" y="644" type="line"/>
			<point x="-280" y="657" type="line"/>
			<point x="-352" y="775" type="line"/>
			<point x="-382" y="757" type="line"/>
		</contour>
		<contour>
			<point x="-385" y="547" type="curve" smooth="yes"/>
			<point x="-367" y="547"/>
			<point x="-351" y="561"/>
			<point x="-351" y="581" type="curve" smooth="yes"/>
			<point x="-351" y="601"/>
			<point x="-367" y="615"/>
			<point x="-385" y="615" type="curve" smooth="yes"/>
			<point x="-403" y="615"/>
			<point x="-419" y="601"/>
			<point x="-419" y="581" type="curve" smooth="yes"/>
			<point x="-419" y="561"/>
			<point x="-403" y="547"/>
		</contour>
		<contour>
			<point x="-207" y="547" type="curve" smooth="yes"/>
			<point x="-189" y="547"/>
			<point x="-173" y="561"/>
			<point x="-173" y="581" type="curve" smooth="yes"/>
			<point x="-173" y="601"/>
			<point x="-189" y="615"/>
			<point x="-207" y="615" type="curve" smooth="yes"/>
			<point x="-225" y="615"/>
			<point x="-241" y="601"/>
			<point x="-241" y="581" type="curve" smooth="yes"/>
			<point x="-241" y="561"/>
			<point x="-225" y="547"/>
		</contour>
	</outline>
</glyph>
<glyph name="maiEk-thai.narrow" format="2">
	<advance width="0"/>
	<anchor x="-284" y="512" name="top"/>
	<anchor x="-194" y="300" name="_top"/>
	<note>
		maiEk-thai.narrow
	</note>
	<outline>
		<contour>
			<point x="-299" y="635" type="curve" smooth="yes"/>
			<point x="-290" y="635"/>
			<point x="-284" y="640"/>
			<point x="-284" y="647" type="curve" smooth="yes"/>
			<point x="-284" y="787" type="line" smooth="yes"/>
			<point x="-284" y="798"/>
			<point x="-292" y="804"/>
			<point x="-302" y="804" type="curve" smooth="yes"/>
			<point x="-311" y="804"/>
			<point x="-317" y="799"/>
			<point x="-317" y="792" type="curve" smooth="yes"/>
			<point x="-317" y="652" type="line" smooth="yes"/>
			<point x="-317" y="641"/>
			<point x="-309" y="635"/>
		</contour>
	</outline>
</glyph>
<glyph name="maiEk-thai.small" format="2">
	<advance width="0"/>
	<anchor x="-90" y="713" name="top"/>
	<anchor x="-90" y="512" name="_top"/>
	<note>
		maiEk-thai.small
	</note>
	<outline>
		<contour>
			<point x="-103" y="860" type="curve" smooth="yes"/>
			<point x="-94" y="860"/>
			<point x="-90" y="865"/>
			<point x="-90" y="872" type="curve" smooth="yes"/>
			<point x="-90" y="990" type="line" smooth="yes"/>
			<point x="-90" y="1001"/>
			<point x="-96" y="1007"/>
			<point x="-106" y="1007" type="curve" smooth="yes"/>
			<point x="-115" y="1007"/>
			<point x="-119" y="1002"/>
			<point x="-119" y="995" type="curve" smooth="yes"/>
			<point x="-119" y="877" type="line" smooth="yes"/>
			<point x="-119" y="866"/>
			<point x="-113" y="860"/>
		</contour>
	</outline>
</glyph>
<glyph name="nikhahit_maiChattawa-thai" format="2">
	<advance width="0"/>
	<anchor x="-90" y="522" name="top"/>
	<anchor x="-90" y="300" name="_top"/>
	<outline>
		<contour>
			<point x="-111" y="623" type="curve" smooth="yes"/>
			<point x="-62" y="623"/>
			<point x="-27" y="655"/>
			<point x="-27" y="704" type="curve" smooth="yes"/>
			<point x="-27" y="754"/>
			<point x="-62" y="786"/>
			<point x="-111" y="786" type="curve" smooth="yes"/>
			<point x="-161" y="786"/>
			<point x="-196" y="754"/>
			<point x="-196" y="704" type="curve" smooth="yes"/>
			<point x="-196" y="655"/>
			<point x="-161" y="623"/>
		</contour>
		<contour>
			<point x="-111" y="645" type="curve" smooth="yes"/>
			<point x="-144" y="645"/>
			<point x="-169" y="666"/>
			<point x="-169" y="704" type="curve" smooth="yes"/>
			<point x="-169" y="743"/>
			<point x="-144" y="764"/>
			<point x="-111" y="764" type="curve" smooth="yes"/>
			<point x="-79" y="764"/>
			<point x="-54" y="743"/>
			<point x="-54" y="704" type="curve" smooth="yes"/>
			<point x="-54" y="667"/>
			<point x="-79" y="645"/>
		</contour>
		<contour>
			<point x="-101" y="860" type="curve" smooth="yes"/>
			<point x="-92" y="860"/>
			<point x="-88" y="865"/>
			<point x="-88" y="871" type="curve" smooth="yes"/>
			<point x="-90" y="931" type="line"/>
			<point x="-32" y="929" type="line" smooth="yes"/>
			<point x="-21" y="929"/>
			<point x="-15" y="932"/>
			<point x="-15" y="943" type="curve" smooth="yes"/>
			<point x="-15" y="952"/>
			<point x="-20" y="954"/>
			<point x="-27" y="954" type="curve" smooth="yes"/>
			<point x="-90" y="952" type="line"/>
			<point x="-88" y="1007" type="line" smooth="yes"/>
			<point x="-88" y="1017"/>
			<point x="-93" y="1023"/>
			<point x="-103" y="1023" type="curve" smooth="yes"/>
			<point x="-112" y="1023"/>
			<point x="-116" y="1018"/>
			<point x="-116" y="1012" type="curve" smooth="yes"/>
			<point x="-114" y="952" type="line"/>
			<point x="-172" y="954" type="line" smooth="yes"/>
			<point x="-182" y="954"/>
			<point x="-188" y="951"/>
			<point x="-188" y="940" type="curve" smooth="yes"/>
			<point x="-188" y="931"/>
			<point x="-183" y="929"/>
			<point x="-177" y="929" type="curve" smooth="yes"/>
			<point x="-114" y="931" type="line"/>
			<point x="-116" y="876" type="line" smooth="yes"/>
			<point x="-116" y="866"/>
			<point x="-111" y="860"/>
		</contour>
	</outline>
</glyph>
<glyph name="nikhahit_maiChattawa-thai.narrow" format="2">
	<advance width="0"/>
	<anchor x="-297" y="522" name="top"/>
	<anchor x="-232" y="300" name="_top"/>
	<outline>
		<contour>
			<point x="-315" y="623" type="curve" smooth="yes"/>
			<point x="-266" y="623"/>
			<point x="-231" y="655"/>
			<point x="-231" y="704" type="curve" smooth="yes"/>
			<point x="-231" y="754"/>
			<point x="-266" y="786"/>
			<point x="-315" y="786" type="curve" smooth="yes"/>
			<point x="-365" y="786"/>
			<point x="-400" y="754"/>
			<point x="-400" y="704" type="curve" smooth="yes"/>
			<point x="-400" y="655"/>
			<point x="-365" y="623"/>
		</contour>
		<contour>
			<point x="-315" y="645" type="curve" smooth="yes"/>
			<point x="-348" y="645"/>
			<point x="-373" y="666"/>
			<point x="-373" y="704" type="curve" smooth="yes"/>
			<point x="-373" y="743"/>
			<point x="-348" y="764"/>
			<point x="-315" y="764" type="curve" smooth="yes"/>
			<point x="-283" y="764"/>
			<point x="-258" y="743"/>
			<point x="-258" y="704" type="curve" smooth="yes"/>
			<point x="-258" y="667"/>
			<point x="-283" y="645"/>
		</contour>
		<contour>
			<point x="-311" y="860" type="curve" smooth="yes"/>
			<point x="-302" y="860"/>
			<point x="-298" y="865"/>
			<point x="-298" y="871" type="curve" smooth="yes"/>
			<point x="-300" y="931" type="line"/>
			<point x="-242" y="929" type="line" smooth="yes"/>
			<point x="-231" y="929"/>
			<point x="-225" y="932"/>
			<point x="-225" y="943" type="curve" smooth="yes"/>
			<point x="-225" y="952"/>
			<point x="-230" y="954"/>
			<point x="-237" y="954" type="curve" smooth="yes"/>
			<point x="-300" y="952" type="line"/>
			<point x="-298" y="1007" type="line" smooth="yes"/>
			<point x="-298" y="1017"/>
			<point x="-303" y="1023"/>
			<point x="-313" y="1023" type="curve" smooth="yes"/>
			<point x="-322" y="1023"/>
			<point x="-326" y="1018"/>
			<point x="-326" y="1012" type="curve" smooth="yes"/>
			<point x="-324" y="952" type="line"/>
			<point x="-382" y="954" type="line" smooth="yes"/>
			<point x="-392" y="954"/>
			<point x="-398" y="951"/>
			<point x="-398" y="940" type="curve" smooth="yes"/>
			<point x="-398" y="931"/>
			<point x="-393" y="929"/>
			<point x="-387" y="929" type="curve" smooth="yes"/>
			<point x="-324" y="931" type="line"/>
			<point x="-326" y="876" type="line" smooth="yes"/>
			<point x="-326" y="866"/>
			<point x="-321" y="860"/>
		</contour>
	</outline>
</glyph>
<glyph name="nikhahit_maiEk-thai" format="2">
	<advance width="0"/>
	<anchor x="-90" y="522" name="top"/>
	<anchor x="-90" y="300" name="_top"/>
	<outline>
		<contour>
			<point x="-111" y="623" type="curve" smooth="yes"/>
			<point x="-62" y="623"/>
			<point x="-27" y="655"/>
			<point x="-27" y="704" type="curve" smooth="yes"/>
			<point x="-27" y="754"/>
			<point x="-62" y="786"/>
			<point x="-111" y="786" type="curve" smooth="yes"/>
			<point x="-161" y="786"/>
			<point x="-196" y="754"/>
			<point x="-196" y="704" type="curve" smooth="yes"/>
			<point x="-196" y="655"/>
			<point x="-161" y="623"/>
		</contour>
		<contour>
			<point x="-111" y="645" type="curve" smooth="yes"/>
			<point x="-144" y="645"/>
			<point x="-169" y="666"/>
			<point x="-169" y="704" type="curve" smooth="yes"/>
			<point x="-169" y="743"/>
			<point x="-144" y="764"/>
			<point x="-111" y="764" type="curve" smooth="yes"/>
			<point x="-79" y="764"/>
			<point x="-54" y="743"/>
			<point x="-54" y="704" type="curve" smooth="yes"/>
			<point x="-54" y="667"/>
			<point x="-79" y="645"/>
		</contour>
		<contour>
			<point x="-103" y="860" type="curve" smooth="yes"/>
			<point x="-94" y="860"/>
			<point x="-90" y="865"/>
			<point x="-90" y="872" type="curve" smooth="yes"/>
			<point x="-90" y="990" type="line" smooth="yes"/>
			<point x="-90" y="1001"/>
			<point x="-96" y="1007"/>
			<point x="-106" y="1007" type="curve" smooth="yes"/>
			<point x="-115" y="1007"/>
			<point x="-119" y="1002"/>
			<point x="-119" y="995" type="curve" smooth="yes"/>
			<point x="-119" y="877" type="line" smooth="yes"/>
			<point x="-119" y="866"/>
			<point x="-113" y="860"/>
		</contour>
	</outline>
</glyph>
<glyph name="nikhahit_maiEk-thai.narrow" format="2">
	<advance width="0"/>
	<anchor x="-297" y="522" name="top"/>
	<anchor x="-232" y="300" name="_top"/>
	<outline>
		<contour>
			<point x="-315" y="623" type="curve" smooth="yes"/>
			<point x="-266" y="623"/>
			<point x="-231" y="655"/>
			<point x="-231" y="704" type="curve" smooth="yes"/>
			<point x="-231" y="754"/>
			<point x="-266" y="786"/>
			<point x="-315" y="786" type="curve" smooth="yes"/>
			<point x="-365" y="786"/>
			<point x="-400" y="754"/>
			<point x="-400" y="704" type="curve" smooth="yes"/>
			<point x="-400" y="655"/>
			<point x="-365" y="623"/>
		</contour>
		<contour>
			<point x="-315" y="645" type="curve" smooth="yes"/>
			<point x="-348" y="645"/>
			<point x="-373" y="666"/>
			<point x="-373" y="704" type="curve" smooth="yes"/>
			<point x="-373" y="743"/>
			<point x="-348" y="764"/>
			<point x="-315" y="764" type="curve" smooth="yes"/>
			<point x="-283" y="764"/>
			<point x="-258" y="743"/>
			<point x="-258" y="704" type="curve" smooth="yes"/>
			<point x="-258" y="667"/>
			<point x="-283" y="645"/>
		</contour>
		<contour>
			<point x="-303" y="860" type="curve" smooth="yes"/>
			<point x="-294" y="860"/>
			<point x="-290" y="865"/>
			<point x="-290" y="872" type="curve" smooth="yes"/>
			<point x="-290" y="990" type="line" smooth="yes"/>
			<point x="-290" y="1001"/>
			<point x="-296" y="1007"/>
			<point x="-306" y="1007" type="curve" smooth="yes"/>
			<point x="-315" y="1007"/>
			<point x="-319" y="1002"/>
			<point x="-319" y="995" type="curve" smooth="yes"/>
			<point x="-319" y="877" type="line" smooth="yes"/>
			<point x="-319" y="866"/>
			<point x="-313" y="860"/>
		</contour>
	</outline>
</glyph>
<glyph name="nikhahit_maiTho-thai.narrow" format="2">
	<advance width="0"/>
	<anchor x="-297" y="522" name="top"/>
	<anchor x="-232" y="300" name="_top"/>
	<outline>
		<contour>
			<point x="-315" y="623" type="curve" smooth="yes"/>
			<point x="-266" y="623"/>
			<point x="-231" y="655"/>
			<point x="-231" y="704" type="curve" smooth="yes"/>
			<point x="-231" y="754"/>
			<point x="-266" y="786"/>
			<point x="-315" y="786" type="curve" smooth="yes"/>
			<point x="-365" y="786"/>
			<point x="-400" y="754"/>
			<point x="-400" y="704" type="curve" smooth="yes"/>
			<point x="-400" y="655"/>
			<point x="-365" y="623"/>
		</contour>
		<contour>
			<point x="-315" y="645" type="curve" smooth="yes"/>
			<point x="-348" y="645"/>
			<point x="-373" y="666"/>
			<point x="-373" y="704" type="curve" smooth="yes"/>
			<point x="-373" y="743"/>
			<point x="-348" y="764"/>
			<point x="-315" y="764" type="curve" smooth="yes"/>
			<point x="-283" y="764"/>
			<point x="-258" y="743"/>
			<point x="-258" y="704" type="curve" smooth="yes"/>
			<point x="-258" y="667"/>
			<point x="-283" y="645"/>
		</contour>
		<contour>
			<point x="-397" y="860" type="curve" smooth="yes"/>
			<point x="-295" y="863"/>
			<point x="-213" y="902"/>
			<point x="-181" y="994" type="curve" smooth="yes"/>
			<point x="-179" y="1000"/>
			<point x="-177" y="1009"/>
			<point x="-177" y="1013" type="curve" smooth="yes"/>
			<point x="-177" y="1021"/>
			<point x="-181" y="1027"/>
			<point x="-194" y="1027" type="curve" smooth="yes"/>
			<point x="-200" y="1027"/>
			<point x="-202" y="1023"/>
			<point x="-203" y="1018" type="curve" smooth="yes"/>
			<point x="-220" y="938"/>
			<point x="-280" y="895"/>
			<point x="-370" y="886" type="curve"/>
			<point x="-338" y="910"/>
			<point x="-323" y="935"/>
			<point x="-323" y="975" type="curve" smooth="yes"/>
			<point x="-323" y="1009"/>
			<point x="-346" y="1034"/>
			<point x="-380" y="1034" type="curve" smooth="yes"/>
			<point x="-412" y="1034"/>
			<point x="-435" y="1011"/>
			<point x="-435" y="981" type="curve" smooth="yes"/>
			<point x="-435" y="950"/>
			<point x="-410" y="930"/>
			<point x="-383" y="930" type="curve" smooth="yes"/>
			<point x="-371" y="930"/>
			<point x="-361" y="934"/>
			<point x="-354" y="940" type="curve"/>
			<point x="-351" y="938" type="line"/>
			<point x="-361" y="913"/>
			<point x="-383" y="896"/>
			<point x="-409" y="886" type="curve"/>
			<point x="-409" y="869" type="line" smooth="yes"/>
			<point x="-409" y="862"/>
			<point x="-403" y="860"/>
		</contour>
		<contour>
			<point x="-381" y="948" type="curve" smooth="yes"/>
			<point x="-400" y="948"/>
			<point x="-414" y="961"/>
			<point x="-414" y="982" type="curve" smooth="yes"/>
			<point x="-414" y="1003"/>
			<point x="-400" y="1016"/>
			<point x="-381" y="1016" type="curve" smooth="yes"/>
			<point x="-362" y="1016"/>
			<point x="-348" y="1003"/>
			<point x="-348" y="982" type="curve" smooth="yes"/>
			<point x="-348" y="961"/>
			<point x="-362" y="948"/>
		</contour>
	</outline>
</glyph>
<glyph name="nikhahit_maiTri-thai" format="2">
	<advance width="0"/>
	<anchor x="-90" y="522" name="top"/>
	<anchor x="-90" y="300" name="_top"/>
	<outline>
		<contour>
			<point x="-111" y="623" type="curve" smooth="yes"/>
			<point x="-62" y="623"/>
			<point x="-27" y="655"/>
			<point x="-27" y="704" type="curve" smooth="yes"/>
			<point x="-27" y="754"/>
			<point x="-62" y="786"/>
			<point x="-111" y="786" type="curve" smooth="yes"/>
			<point x="-161" y="786"/>
			<point x="-196" y="754"/>
			<point x="-196" y="704" type="curve" smooth="yes"/>
			<point x="-196" y="655"/>
			<point x="-161" y="623"/>
		</contour>
		<contour>
			<point x="-111" y="645" type="curve" smooth="yes"/>
			<point x="-144" y="645"/>
			<point x="-169" y="666"/>
			<point x="-169" y="704" type="curve" smooth="yes"/>
			<point x="-169" y="743"/>
			<point x="-144" y="764"/>
			<point x="-111" y="764" type="curve" smooth="yes"/>
			<point x="-79" y="764"/>
			<point x="-54" y="743"/>
			<point x="-54" y="704" type="curve" smooth="yes"/>
			<point x="-54" y="667"/>
			<point x="-79" y="645"/>
		</contour>
		<contour>
			<point x="-227" y="859" type="curve" smooth="yes"/>
			<point x="-198" y="859"/>
			<point x="-174" y="879"/>
			<point x="-174" y="910" type="curve" smooth="yes"/>
			<point x="-174" y="941"/>
			<point x="-196" y="959"/>
			<point x="-224" y="959" type="curve" smooth="yes"/>
			<point x="-235" y="959"/>
			<point x="-245" y="956"/>
			<point x="-255" y="948" type="curve"/>
			<point x="-257" y="949" type="line"/>
			<point x="-256" y="977"/>
			<point x="-245" y="1007"/>
			<point x="-215" y="1007" type="curve" smooth="yes"/>
			<point x="-184" y="1007"/>
			<point x="-175" y="982"/>
			<point x="-175" y="970" type="curve"/>
			<point x="-153" y="970" type="line"/>
			<point x="-153" y="983"/>
			<point x="-142" y="1007"/>
			<point x="-119" y="1007" type="curve" smooth="yes"/>
			<point x="-95" y="1007"/>
			<point x="-88" y="988"/>
			<point x="-88" y="962" type="curve" smooth="yes"/>
			<point x="-88" y="877" type="line" smooth="yes"/>
			<point x="-88" y="871"/>
			<point x="-86" y="866"/>
			<point x="-77" y="866" type="curve" smooth="yes"/>
			<point x="-48" y="866" type="line" smooth="yes"/>
			<point x="-6" y="866"/>
			<point x="16" y="882"/>
			<point x="16" y="932" type="curve" smooth="yes"/>
			<point x="16" y="1026" type="line" smooth="yes"/>
			<point x="16" y="1037"/>
			<point x="12" y="1043"/>
			<point x="3" y="1043" type="curve" smooth="yes"/>
			<point x="-6" y="1043"/>
			<point x="-9" y="1038"/>
			<point x="-9" y="1031" type="curve" smooth="yes"/>
			<point x="-9" y="930" type="line" smooth="yes"/>
			<point x="-9" y="896"/>
			<point x="-21" y="887"/>
			<point x="-47" y="887" type="curve" smooth="yes"/>
			<point x="-63" y="887" type="line"/>
			<point x="-63" y="961" type="line" smooth="yes"/>
			<point x="-63" y="1002"/>
			<point x="-78" y="1028"/>
			<point x="-118" y="1028" type="curve" smooth="yes"/>
			<point x="-139" y="1028"/>
			<point x="-159" y="1015"/>
			<point x="-164" y="997" type="curve"/>
			<point x="-170" y="1014"/>
			<point x="-187" y="1028"/>
			<point x="-216" y="1028" type="curve" smooth="yes"/>
			<point x="-259" y="1028"/>
			<point x="-282" y="991"/>
			<point x="-282" y="935" type="curve" smooth="yes"/>
			<point x="-282" y="880"/>
			<point x="-255" y="859"/>
		</contour>
		<contour>
			<point x="-225" y="876" type="curve" smooth="yes"/>
			<point x="-243" y="876"/>
			<point x="-257" y="888"/>
			<point x="-257" y="909" type="curve" smooth="yes"/>
			<point x="-257" y="930"/>
			<point x="-243" y="942"/>
			<point x="-225" y="942" type="curve" smooth="yes"/>
			<point x="-208" y="942"/>
			<point x="-194" y="930"/>
			<point x="-194" y="909" type="curve" smooth="yes"/>
			<point x="-194" y="888"/>
			<point x="-208" y="876"/>
		</contour>
	</outline>
</glyph>
<glyph name="nikhahit_maiTri-thai.narrow" format="2">
	<advance width="0"/>
	<anchor x="-297" y="522" name="top"/>
	<anchor x="-232" y="300" name="_top"/>
	<outline>
		<contour>
			<point x="-315" y="623" type="curve" smooth="yes"/>
			<point x="-266" y="623"/>
			<point x="-231" y="655"/>
			<point x="-231" y="704" type="curve" smooth="yes"/>
			<point x="-231" y="754"/>
			<point x="-266" y="786"/>
			<point x="-315" y="786" type="curve" smooth="yes"/>
			<point x="-365" y="786"/>
			<point x="-400" y="754"/>
			<point x="-400" y="704" type="curve" smooth="yes"/>
			<point x="-400" y="655"/>
			<point x="-365" y="623"/>
		</contour>
		<contour>
			<point x="-315" y="645" type="curve" smooth="yes"/>
			<point x="-348" y="645"/>
			<point x="-373" y="666"/>
			<point x="-373" y="704" type="curve" smooth="yes"/>
			<point x="-373" y="743"/>
			<point x="-348" y="764"/>
			<point x="-315" y="764" type="curve" smooth="yes"/>
			<point x="-283" y="764"/>
			<point x="-258" y="743"/>
			<point x="-258" y="704" type="curve" smooth="yes"/>
			<point x="-258" y="667"/>
			<point x="-283" y="645"/>
		</contour>
		<contour>
			<point x="-419" y="859" type="curve" smooth="yes"/>
			<point x="-390" y="859"/>
			<point x="-366" y="879"/>
			<point x="-366" y="910" type="curve" smooth="yes"/>
			<point x="-366" y="941"/>
			<point x="-388" y="959"/>
			<point x="-416" y="959" type="curve" smooth="yes"/>
			<point x="-427" y="959"/>
			<point x="-437" y="956"/>
			<point x="-447" y="948" type="curve"/>
			<point x="-449" y="949" type="line"/>
			<point x="-448" y="977"/>
			<point x="-437" y="1007"/>
			<point x="-407" y="1007" type="curve" smooth="yes"/>
			<point x="-376" y="1007"/>
			<point x="-367" y="982"/>
			<point x="-367" y="970" type="curve"/>
			<point x="-345" y="970" type="line"/>
			<point x="-345" y="983"/>
			<point x="-334" y="1007"/>
			<point x="-311" y="1007" type="curve" smooth="yes"/>
			<point x="-287" y="1007"/>
			<point x="-280" y="988"/>
			<point x="-280" y="962" type="curve" smooth="yes"/>
			<point x="-280" y="877" type="line" smooth="yes"/>
			<point x="-280" y="871"/>
			<point x="-278" y="866"/>
			<point x="-269" y="866" type="curve" smooth="yes"/>
			<point x="-240" y="866" type="line" smooth="yes"/>
			<point x="-198" y="866"/>
			<point x="-176" y="882"/>
			<point x="-176" y="932" type="curve" smooth="yes"/>
			<point x="-176" y="1026" type="line" smooth="yes"/>
			<point x="-176" y="1037"/>
			<point x="-180" y="1043"/>
			<point x="-189" y="1043" type="curve" smooth="yes"/>
			<point x="-198" y="1043"/>
			<point x="-201" y="1038"/>
			<point x="-201" y="1031" type="curve" smooth="yes"/>
			<point x="-201" y="930" type="line" smooth="yes"/>
			<point x="-201" y="896"/>
			<point x="-213" y="887"/>
			<point x="-239" y="887" type="curve" smooth="yes"/>
			<point x="-255" y="887" type="line"/>
			<point x="-255" y="961" type="line" smooth="yes"/>
			<point x="-255" y="1002"/>
			<point x="-270" y="1028"/>
			<point x="-310" y="1028" type="curve" smooth="yes"/>
			<point x="-331" y="1028"/>
			<point x="-351" y="1015"/>
			<point x="-356" y="997" type="curve"/>
			<point x="-362" y="1014"/>
			<point x="-379" y="1028"/>
			<point x="-408" y="1028" type="curve" smooth="yes"/>
			<point x="-451" y="1028"/>
			<point x="-474" y="991"/>
			<point x="-474" y="935" type="curve" smooth="yes"/>
			<point x="-474" y="880"/>
			<point x="-447" y="859"/>
		</contour>
		<contour>
			<point x="-417" y="876" type="curve" smooth="yes"/>
			<point x="-435" y="876"/>
			<point x="-449" y="888"/>
			<point x="-449" y="909" type="curve" smooth="yes"/>
			<point x="-449" y="930"/>
			<point x="-435" y="942"/>
			<point x="-417" y="942" type="curve" smooth="yes"/>
			<point x="-400" y="942"/>
			<point x="-386" y="930"/>
			<point x="-386" y="909" type="curve" smooth="yes"/>
			<point x="-386" y="888"/>
			<point x="-400" y="876"/>
		</contour>
	</outline>
</glyph>
<glyph name="phinthu-thai.small" format="2">
	<advance width="0"/>
	<anchor x="-90" y="-180" name="_bottom"/>
	<anchor x="-90" y="-440" name="bottom"/>
	<note>
		phinthu-thai.small
	</note>
	<outline>
		<contour>
			<point x="-106" y="-344" type="curve" smooth="yes"/>
			<point x="-84" y="-344"/>
			<point x="-64" y="-329"/>
			<point x="-64" y="-302" type="curve" smooth="yes"/>
			<point x="-64" y="-275"/>
			<point x="-84" y="-260"/>
			<point x="-106" y="-260" type="curve" smooth="yes"/>
			<point x="-128" y="-260"/>
			<point x="-148" y="-275"/>
			<point x="-148" y="-302" type="curve" smooth="yes"/>
			<point x="-148" y="-329"/>
			<point x="-128" y="-344"/>
		</contour>
	</outline>
</glyph>
<glyph name="saraI-thai.narrow" format="2">
	<advance width="0"/>
	<anchor x="-194" y="492" name="top"/>
	<anchor x="-194" y="300" name="_top"/>
	<note>
		saraI-thai.narrow
	</note>
	<outline>
		<contour>
			<point x="-566" y="633" type="curve" smooth="yes"/>
			<point x="-186" y="633" type="line" smooth="yes"/>
			<point x="-179" y="633"/>
			<point x="-177" y="635"/>
			<point x="-177" y="643" type="curve" smooth="yes"/>
			<point x="-177" y="654" type="line"/>
			<point x="-197" y="723"/>
			<point x="-262" y="782"/>
			<point x="-376" y="782" type="curve" smooth="yes"/>
			<point x="-487" y="782"/>
			<point x="-555" y="723"/>
			<point x="-575" y="654" type="curve"/>
			<point x="-575" y="643" type="line" smooth="yes"/>
			<point x="-575" y="635"/>
			<point x="-573" y="633"/>
		</contour>
		<contour>
			<point x="-544" y="657" type="line"/>
			<point x="-524" y="720"/>
			<point x="-460" y="758"/>
			<point x="-376" y="758" type="curve" smooth="yes"/>
			<point x="-292" y="758"/>
			<point x="-228" y="720"/>
			<point x="-208" y="657" type="curve"/>
		</contour>
	</outline>
</glyph>
<glyph name="thanthakhat-thai.small" format="2">
	<advance width="0"/>
	<anchor x="-90" y="713" name="top"/>
	<anchor x="-90" y="512" name="_top"/>
	<note>
		thanthakhat-thai.small
	</note>
	<outline>
		<contour>
			<point x="-146" y="860" type="curve" smooth="yes"/>
			<point x="-113" y="860"/>
			<point x="-89" y="883"/>
			<point x="-89" y="915" type="curve" smooth="yes"/>
			<point x="-89" y="925"/>
			<point x="-93" y="938"/>
			<point x="-99" y="944" type="curve"/>
			<point x="-97" y="947" type="line"/>
			<point x="-92" y="945"/>
			<point x="-87" y="944"/>
			<point x="-82" y="944" type="curve" smooth="yes"/>
			<point x="3" y="944" type="line" smooth="yes"/>
			<point x="14" y="944"/>
			<point x="20" y="948"/>
			<point x="20" y="958" type="curve" smooth="yes"/>
			<point x="20" y="967"/>
			<point x="15" y="970"/>
			<point x="8" y="970" type="curve" smooth="yes"/>
			<point x="-146" y="970" type="line" smooth="yes"/>
			<point x="-178" y="970"/>
			<point x="-203" y="947"/>
			<point x="-203" y="915" type="curve" smooth="yes"/>
			<point x="-203" y="883"/>
			<point x="-178" y="860"/>
		</contour>
		<contour>
			<point x="-146" y="878" type="curve" smooth="yes"/>
			<point x="-166" y="878"/>
			<point x="-181" y="892"/>
			<point x="-181" y="915" type="curve" smooth="yes"/>
			<point x="-181" y="938"/>
			<point x="-166" y="952"/>
			<point x="-146" y="952" type="curve" smooth="yes"/>
			<point x="-125" y="952"/>
			<point x="-110" y="938"/>
			<point x="-110" y="915" type="curve" smooth="yes"/>
			<point x="-110" y="892"/>
			<point x="-125" y="878"/>
		</contour>
	</outline>
</glyph>
